<svg id="visual" viewBox="0 0 900 600" width="900" height="600" xmlns="http://www.w3.org/2000/svg" xmlns:xlink="http://www.w3.org/1999/xlink" version="1.1"><path d="M453 0L451 16.7C449 33.3 445 66.7 462 100C479 133.3 517 166.7 542.8 200C568.7 233.3 582.3 266.7 558.8 300C535.3 333.3 474.7 366.7 443 400C411.3 433.3 408.7 466.7 439.3 500C470 533.3 534 566.7 566 583.3L598 600L0 600L0 583.3C0 566.7 0 533.3 0 500C0 466.7 0 433.3 0 400C0 366.7 0 333.3 0 300C0 266.7 0 233.3 0 200C0 166.7 0 133.3 0 100C0 66.7 0 33.3 0 16.7L0 0Z" fill="#0066FF" stroke-linecap="round" stroke-linejoin="miter"></path></svg>