<svg id="visual" viewBox="0 0 900 600" width="900" height="600" xmlns="http://www.w3.org/2000/svg" xmlns:xlink="http://www.w3.org/1999/xlink" version="1.1"><path d="M504 0L484.2 20C464.3 40 424.7 80 406.7 120C388.7 160 392.3 200 417 240C441.7 280 487.3 320 485.5 360C483.7 400 434.3 440 426.8 480C419.3 520 453.7 560 470.8 580L488 600L0 600L0 580C0 560 0 520 0 480C0 440 0 400 0 360C0 320 0 280 0 240C0 200 0 160 0 120C0 80 0 40 0 20L0 0Z" fill="#0066FF" stroke-linecap="round" stroke-linejoin="miter"></path></svg>